grf
version=1
nRows=9
nColumns=37
inDegrees=no
endheader
time	ground_force_1_vx	ground_force_1_vy	ground_force_1_vz	ground_force_1_px	ground_force_1_py	ground_force_1_pz	ground_moment_1_mx	ground_moment_1_my	ground_moment_1_mz	ground_force_2_vx	ground_force_2_vy	ground_force_2_vz	ground_force_2_px	ground_force_2_py	ground_force_2_pz	ground_moment_2_mx	ground_moment_2_my	ground_moment_2_mz	ground_force_3_vx	ground_force_3_vy	ground_force_3_vz	ground_force_3_px	ground_force_3_py	ground_force_3_pz	ground_moment_3_mx	ground_moment_3_my	ground_moment_3_mz	ground_force_4_vx	ground_force_4_vy	ground_force_4_vz	ground_force_4_px	ground_force_4_py	ground_force_4_pz	ground_moment_4_mx	ground_moment_4_my	ground_moment_4_mz
      4.64000000	      0.00000000	     -0.00000000	      0.00000000	      0.00000000	      0.00000000	      0.00000000	      0.00000000	      0.00000000	      0.00000000	     -1.70919156	     -4.18970823	   -347.23437500	   -346.37894017	  -1105.17529136	      0.00000000	      0.00000000	     -0.00000000	   6673.38558322	     -3.13503696	      2.54587535	   -395.99554443	   -348.31745135	   -713.59538979	      0.00000000	      0.00000000	     -0.00000000	  -7541.00205669	      0.00000000	     -0.00000000	      0.00000000	      0.00000000	      0.00000000	      0.00000000	      0.00000000	      0.00000000	      0.00000000
      4.65000000	      0.00000000	     -0.00000000	      0.00000000	      0.00000000	      0.00000000	      0.00000000	      0.00000000	      0.00000000	      0.00000000	     -1.68015254	     -3.80281210	   -348.23541260	   -345.95653344	  -1104.36453440	      0.00000000	      0.00000000	      0.00000000	   6825.81020840	     -2.98630668	      2.59062555	   -395.93624878	   -348.52519129	   -714.71103355	      0.00000000	      0.00000000	     -0.00000000	  -7692.73810346	      0.00000000	     -0.00000000	      0.00000000	      0.00000000	      0.00000000	      0.00000000	      0.00000000	      0.00000000	      0.00000000
      4.66000000	      0.00000000	     -0.00000000	      0.00000000	      0.00000000	      0.00000000	      0.00000000	      0.00000000	      0.00000000	      0.00000000	     -2.17086601	     -4.14444828	   -347.64709473	   -346.28741277	  -1104.49031734	      0.00000000	      0.00000000	      0.00000000	   6858.35528630	     -3.60759767	      1.85467811	   -397.62557983	   -348.91656592	   -712.86115359	      0.00000000	     -0.00000000	     -0.00000000	  -7511.28291927	      0.00000000	     -0.00000000	      0.00000000	      0.00000000	      0.00000000	      0.00000000	      0.00000000	      0.00000000	      0.00000000
      4.67000000	      0.00000000	     -0.00000000	      0.00000000	      0.00000000	      0.00000000	      0.00000000	      0.00000000	      0.00000000	      0.00000000	     -2.63136840	     -3.99658203	   -347.82293701	   -346.96123962	  -1104.58976165	      0.00000000	      0.00000000	      0.00000000	   6569.27637288	     -3.10487731	      1.86953762	   -396.52084351	   -348.61674342	   -713.72848686	      0.00000000	      0.00000000	     -0.00000000	  -7289.20207453	      0.00000000	     -0.00000000	      0.00000000	      0.00000000	      0.00000000	      0.00000000	      0.00000000	      0.00000000	      0.00000000
      4.68000000	      0.00000000	     -0.00000000	      0.00000000	      0.00000000	      0.00000000	      0.00000000	      0.00000000	      0.00000000	      0.00000000	     -1.30913138	     -4.41142225	   -347.88226318	   -347.29504537	  -1105.96017810	      0.00000000	      0.00000000	      0.00000000	   6865.08495856	     -2.01127919	      1.81022018	   -395.23962402	   -348.64700488	   -712.64141772	      0.00000000	      0.00000000	     -0.00000000	  -7329.64025882	      0.00000000	     -0.00000000	      0.00000000	      0.00000000	      0.00000000	      0.00000000	      0.00000000	      0.00000000	      0.00000000
      4.69000000	      0.00000000	     -0.00000000	      0.00000000	      0.00000000	      0.00000000	      0.00000000	      0.00000000	      0.00000000	      0.00000000	     -0.58059222	     -4.73900747	   -347.76263428	   -347.80869618	  -1105.71013838	      0.00000000	      0.00000000	      0.00000000	   6704.24936306	     -1.52305698	      1.38445796	   -391.04980469	   -348.75438274	   -714.29611371	      0.00000000	      0.00000000	     -0.00000000	  -7194.03192478	      0.00000000	     -0.00000000	      0.00000000	      0.00000000	      0.00000000	      0.00000000	      0.00000000	      0.00000000	      0.00000000
      4.70000000	      0.00000000	     -0.00000000	      0.00000000	      0.00000000	      0.00000000	      0.00000000	      0.00000000	      0.00000000	      0.00000000	     -0.38721228	     -5.21507788	   -343.06546021	   -347.61602940	  -1103.97239024	      0.00000000	      0.00000000	     -0.00000000	   6533.60763005	     -0.97581849	      1.61975595	   -389.82467651	   -348.92938084	   -713.06148350	      0.00000000	      0.00000000	     -0.00000000	  -7060.73895513	      0.00000000	     -0.00000000	      0.00000000	      0.00000000	      0.00000000	      0.00000000	      0.00000000	      0.00000000	      0.00000000
      4.71000000	      0.00000000	     -0.00000000	      0.00000000	      0.00000000	      0.00000000	      0.00000000	      0.00000000	      0.00000000	      0.00000000	     -0.49179864	     -5.71730089	   -344.46212769	   -348.08803779	  -1104.90101135	      0.00000000	      0.00000000	      0.00000000	   6452.03458264	     -0.45866574	      2.27936558	   -387.73672485	   -349.05022447	   -713.64145655	      0.00000000	     -0.00000000	     -0.00000000	  -6980.43541283	      0.00000000	     -0.00000000	      0.00000000	      0.00000000	      0.00000000	      0.00000000	      0.00000000	      0.00000000	      0.00000000
      4.72000000	      0.00000000	     -0.00000000	      0.00000000	      0.00000000	      0.00000000	      0.00000000	      0.00000000	      0.00000000	      0.00000000	      0.16310869	     -5.14162731	   -342.64517212	   -349.06472463	  -1104.07277394	      0.00000000	      0.00000000	      0.00000000	   6621.28909309	      0.72486179	      2.61943310	   -386.39141846	   -350.09918617	   -713.11682762	      0.00000000	      0.00000000	     -0.00000000	  -7023.50309886	      0.00000000	     -0.00000000	      0.00000000	      0.00000000	      0.00000000	      0.00000000	      0.00000000	      0.00000000	      0.00000000
